# xmcd
#
# Track frame offsets: 
#        150
#        18142
#        41527
#        63085
#        81967
#        97322
#        119285
#        139242
#        157187
#        175212
#        192127
#        212120
#
# Disc length: 3152 seconds
#
# Revision: 0
# Processed by: cddbd v1.5.2PL0 Copyright (c) Steve Scherf et al.
# Submitted via: ExactAudioCopyFreeDBPlugin 1.0
#
DISCID=a50c4e0c
DTITLE=Dennis O'Keeffe - Waltzing Down The Years
DYEAR=1995
DGENRE=Folklore
TTITLE0=Mary of the Cross
TTITLE1=The Tail Gunner's Wife
TTITLE2=Dancing Hornpipes on the Back
TTITLE3=The T.A.B. Punters Song
TTITLE4=Dutton's Bride
TTITLE5=The Ghost of Yick Yung
TTITLE6=Waltzing Matilda
TTITLE7=The Old Bark Hut
TTITLE8=The Ballad of Ben Hall
TTITLE9=William Buckley
TTITLE10=William Spence
TTITLE11=Click Go The Shears
EXTD=
EXTT0=
EXTT1=
EXTT2=
EXTT3=
EXTT4=
EXTT5=
EXTT6=
EXTT7=
EXTT8=
EXTT9=
EXTT10=
EXTT11=
PLAYORDER=
